PathFileType	4	(x/y/z)	S01_PSF_T12.trc
DataRate	CameraRate	NumFrames	NumMarkers	Units	OrigDataRate	OrigDataStartFrame	OrigNumFrames
240	240	4	51	mm	240	94	372
Frame#	Time	Sternum			R.Acromium			L.Acromium			Top.Head			R.ASIS			L.ASIS			R.PSIS			L.PSIS			R.Great.Tro			L.Great.Tro			R.Iliac.Crest			L.Iliac.Crest			V.Sacral			R.Thigh.Upper.Post			R.Thigh.Lower.Ant			R.Thigh.Lower.Post			R.Thigh.Upper.Ant			R.Knee.Lat			R.Knee.Med			R.Shank.Upper.Post			R.Shank.Lower.Ant			R.Shank.Lower.Post			R.Shank.Upper.Ant			R.Ankle.Lat			R.Ankle.Med			R.Heel.Upper			R.Heel.Med			R.Heel.Lat			R.Toe.Lat			R.Toe.Med			R.Toe.Tip			L.Thigh.Upper.Post			L.Thigh.Lower.Ant			L.Thigh.Lower.Post			L.Thigh.Upper.Ant			L.Knee.Lat			L.Knee.Med			L.Shank.Upper.Post			L.Shank.Lower.Ant			L.Shank.Lower.Post			L.Shank.Upper.Ant			L.Ankle.Lat			L.Ankle.Med			L.Heel.Upper			L.Heel.Med			L.Heel.Lat			L.Toe.Lat			L.Toe.Med			L.Toe.Tip			Cervical.Spine			Back			
		X1	Y1	Z1	X2	Y2	Z2	X3	Y3	Z3	X4	Y4	Z4	X5	Y5	Z5	X6	Y6	Z6	X7	Y7	Z7	X8	Y8	Z8	X9	Y9	Z9	X10	Y10	Z10	X11	Y11	Z11	X12	Y12	Z12	X13	Y13	Z13	X14	Y14	Z14	X15	Y15	Z15	X16	Y16	Z16	X17	Y17	Z17	X18	Y18	Z18	X19	Y19	Z19	X20	Y20	Z20	X21	Y21	Z21	X22	Y22	Z22	X23	Y23	Z23	X24	Y24	Z24	X25	Y25	Z25	X26	Y26	Z26	X27	Y27	Z27	X28	Y28	Z28	X29	Y29	Z29	X30	Y30	Z30	X31	Y31	Z31	X32	Y32	Z32	X33	Y33	Z33	X34	Y34	Z34	X35	Y35	Z35	X36	Y36	Z36	X37	Y37	Z37	X38	Y38	Z38	X39	Y39	Z39	X40	Y40	Z40	X41	Y41	Z41	X42	Y42	Z42	X43	Y43	Z43	X44	Y44	Z44	X45	Y45	Z45	X46	Y46	Z46	X47	Y47	Z47	X48	Y48	Z48	X49	Y49	Z49	X50	Y50	Z50	X51	Y51	Z51	

94	0.3875	-527.08	1246.2	317.71	-638.78	1482.7	515.38	-655.83	1529	188.81	-596.04	1819.9	368.25	-580.79	1001.7	455.02	-586.79	994.29	189.64	-822.64	1038.5	370.28	-826.77	1040.5	267.72	-652.88	951.7	539.66	-704.06	946.02	114.27	-666.63	1090.3	527.93	-689.7	1088.1	122.31	-838.72	1003.8	316.2	-552.82	659.52	507.52	-462.15	621.58	474.48	-517.39	580.43	482.02	-494.89	702.83	500.2	-472.6	532.16	474.29	-475.79	539.29	331.24	-503.32	366.25	492.32	-435.48	292.37	445.29	-499.72	296.41	479.55	-442.56	363.18	464.51	-481.67	99.619	438.43	-448.4	109.52	345.84	-549.21	70.078	375.04	-530.23	41.748	346.61	-537.3	40.547	411.01	-348.38	38.542	474.4	-312.94	48.844	351.73	-252.87	70.939	408.43	-791.47	680.37	136.17	-719.47	597.72	116.4	-793.92	589.15	144.95	-725.49	693.3	108.85	-771.99	502.07	120.04	-718.56	481.24	255.45	-903.23	435.81	115.25	-917.65	326.95	131.11	-956.82	378.5	122.57	-865.38	382.85	120.4	-1106	223.16	161.85	-1070.7	208.82	255.59	-1168.5	258.99	218.2	-1175.7	236.85	254.07	-1187.6	235.72	192.7	-1077.6	67.831	144	-1044.5	61.477	264.5	-996.17	31.073	207.55	-728.26	1566	361.43	-832.27	1259.2	347.6
95	0.39167	-521.25	1247	318.18	-632.49	1483.3	516.39	-650.21	1530.2	190.01	-590.38	1820.7	369.88	-574.72	1002.7	455.68	-581.01	994.97	190.47	-816.68	1039.3	370.78	-820.82	1041	268.21	-646.66	952.73	540.22	-697.8	946.13	115.04	-660.54	1091.3	528.43	-683.77	1089	123.18	-832.74	1004.4	316.78	-547.78	659.87	508.13	-457.28	621.52	475.03	-512.73	580.63	482.54	-489.64	702.9	500.86	-468.24	532.06	474.73	-471.39	539.37	331.72	-500.29	366.4	492.68	-433.12	292	445.46	-497.29	296.54	479.85	-439.59	362.84	464.79	-481.1	99.646	438.43	-447.89	109.45	345.82	-548.96	70.306	375.13	-530.08	41.954	346.68	-537.15	40.716	411.07	-348.04	38.059	474.4	-312.71	47.868	351.57	-252.43	69.615	408.2	-782.75	679.33	136.27	-709.78	597.46	115.92	-783.98	587.99	144.82	-717.01	693.05	108.77	-761.09	501.48	119.46	-706.73	480.4	254.66	-892.43	437.07	115	-908.27	328.36	130.76	-946.78	380.47	122.52	-855.29	383.58	119.93	-1097.7	227.63	161.8	-1062.5	212.21	255.33	-1158.8	265.38	218.56	-1166.7	243.57	254.62	-1178.7	242.61	193.15	-1074.3	71.08	143.91	-1040.6	63.342	264.11	-993.94	30.771	206.9	-722.39	1566.7	362.81	-826.17	1260	348.66
96	0.39583	-515.46	1247.9	318.63	-626.21	1483.9	517.36	-644.61	1531.4	191.18	-584.73	1821.5	371.49	-568.7	1003.7	456.33	-575.29	995.68	191.29	-810.77	1040.1	371.32	-814.95	1041.5	268.73	-640.45	953.75	540.79	-691.61	946.29	115.81	-654.52	1092.4	528.96	-677.97	1089.9	124.03	-826.81	1005.1	317.4	-542.87	660.21	508.7	-452.55	621.42	475.53	-508.23	580.81	483.03	-484.48	702.95	501.46	-464.05	531.94	475.13	-467.21	539.41	332.16	-497.42	366.53	492.98	-430.91	291.63	445.61	-495	296.66	480.11	-436.78	362.51	465.04	-480.6	99.68	438.41	-447.44	109.39	345.77	-548.75	70.503	375.21	-529.95	42.133	346.73	-537	40.864	411.12	-347.74	37.665	474.39	-312.53	46.999	351.41	-252.06	68.443	407.96	-773.99	678.35	136.37	-700.05	597.28	115.47	-773.99	586.91	144.71	-708.49	692.87	108.7	-750.11	500.97	118.91	-694.89	479.71	253.96	-881.48	438.35	114.77	-898.69	329.81	130.47	-936.55	382.46	122.48	-845.04	384.36	119.51	-1089.2	232.12	161.79	-1054	215.62	255.1	-1148.8	271.65	218.96	-1157.3	250.15	255.21	-1169.5	249.4	193.63	-1070.5	74.519	143.77	-1036.3	65.311	263.65	-991.33	30.634	206.17	-716.53	1567.5	364.16	-820.1	1260.7	349.72
97	0.4	-509.71	1248.8	319.06	-619.93	1484.6	518.3	-639.03	1532.6	192.3	-579.1	1822.3	373.06	-562.72	1004.8	456.97	-569.64	996.4	192.07	-804.89	1040.9	371.89	-809.15	1042	269.31	-634.26	954.76	541.35	-685.49	946.5	116.57	-648.57	1093.4	529.51	-672.29	1090.8	124.85	-820.94	1005.7	318.08	-538.06	660.54	509.23	-447.95	621.29	475.96	-503.86	580.97	483.47	-479.43	702.98	502	-460.03	531.8	475.49	-463.24	539.42	332.56	-494.71	366.65	493.23	-428.81	291.27	445.75	-492.84	296.78	480.32	-434.11	362.18	465.26	-480.15	99.721	438.37	-447.05	109.34	345.71	-548.57	70.673	375.28	-529.84	42.289	346.78	-536.88	40.996	411.16	-347.47	37.348	474.37	-312.37	46.228	351.25	-251.74	67.408	407.73	-765.2	677.44	136.48	-690.29	597.18	115.04	-763.95	585.91	144.64	-699.92	692.75	108.63	-739.06	500.56	118.4	-683.06	479.18	253.36	-870.41	439.66	114.55	-888.93	331.3	130.22	-926.16	384.45	122.45	-834.64	385.21	119.14	-1080.5	236.62	161.82	-1045.4	219.04	254.9	-1138.6	277.76	219.42	-1147.8	256.55	255.83	-1160.2	256.05	194.15	-1066.2	78.128	143.59	-1031.5	67.378	263.09	-988.29	30.687	205.33	-710.68	1568.3	365.47	-814.07	1261.5	350.76
